<svg xmlns="http://www.w3.org/2000/svg" xmlns:xlink="http://www.w3.org/1999/xlink" width="64" zoomAndPan="magnify" viewBox="0 0 48 48" height="64" preserveAspectRatio="xMidYMid meet" version="1.0"><defs><g/><clipPath id="eb73aeb691"><path d="M 9.941406 31.855469 L 38.3125 31.855469 L 38.3125 46.296875 L 9.941406 46.296875 Z M 9.941406 31.855469 " clip-rule="nonzero"/></clipPath><clipPath id="78be0016dd"><path d="M 37.6875 41.113281 L 34.359375 32.597656 C 33.992188 31.855469 33.703125 31.855469 33.25 31.855469 L 14.75 31.855469 C 14.296875 31.855469 14.007812 31.855469 13.640625 32.597656 L 10.3125 41.113281 C 9.691406 42.339844 9.957031 43 10.3125 43.335938 C 12.015625 44.9375 16.582031 46.296875 24 46.296875 C 31.417969 46.296875 35.984375 44.9375 37.6875 43.335938 C 38.042969 43 38.3125 42.339844 37.6875 41.113281 Z M 37.6875 41.113281 " clip-rule="nonzero"/></clipPath><clipPath id="a5a892e115"><path d="M 37.6875 41.113281 L 34.359375 32.597656 C 33.992188 31.855469 33.703125 31.855469 33.25 31.855469 L 14.75 31.855469 C 14.296875 31.855469 14.007812 31.855469 13.640625 32.597656 L 10.3125 41.113281 C 9.691406 42.339844 9.957031 43 10.3125 43.335938 C 12.015625 44.9375 16.582031 46.296875 24 46.296875 C 31.417969 46.296875 35.984375 44.9375 37.6875 43.335938 C 38.042969 43 38.3125 42.339844 37.6875 41.113281 " clip-rule="nonzero"/></clipPath><linearGradient x1="-0.408905" gradientTransform="matrix(0, -4.074995, 4.071962, 0, 24, 44.631183)" y1="0" x2="3.134938" gradientUnits="userSpaceOnUse" y2="0" id="6dde190a57"><stop stop-opacity="1" stop-color="rgb(94.499207%, 94.898987%, 94.898987%)" offset="0"/><stop stop-opacity="1" stop-color="rgb(94.499207%, 94.898987%, 94.898987%)" offset="0.125"/><stop stop-opacity="1" stop-color="rgb(94.303894%, 94.703674%, 94.703674%)" offset="0.140625"/><stop stop-opacity="1" stop-color="rgb(94.099426%, 94.500732%, 94.500732%)" offset="0.15625"/><stop stop-opacity="1" stop-color="rgb(93.896484%, 94.297791%, 94.297791%)" offset="0.171875"/><stop stop-opacity="1" stop-color="rgb(93.505859%, 93.907166%, 94.100952%)" offset="0.1875"/><stop stop-opacity="1" stop-color="rgb(93.304443%, 93.70575%, 94.00177%)" offset="0.195313"/><stop stop-opacity="1" stop-color="rgb(93.296814%, 93.696594%, 93.80188%)" offset="0.203125"/><stop stop-opacity="1" stop-color="rgb(93.099976%, 93.499756%, 93.699646%)" offset="0.21875"/><stop stop-opacity="1" stop-color="rgb(92.901611%, 93.301392%, 93.597412%)" offset="0.226563"/><stop stop-opacity="1" stop-color="rgb(92.893982%, 93.293762%, 93.397522%)" offset="0.234375"/><stop stop-opacity="1" stop-color="rgb(92.694092%, 93.093872%, 93.29834%)" offset="0.25"/><stop stop-opacity="1" stop-color="rgb(92.352295%, 92.703247%, 93.103027%)" offset="0.265625"/><stop stop-opacity="1" stop-color="rgb(92.202759%, 92.503357%, 92.803955%)" offset="0.273438"/><stop stop-opacity="1" stop-color="rgb(92.195129%, 92.495728%, 92.599487%)" offset="0.28125"/><stop stop-opacity="1" stop-color="rgb(91.996765%, 92.347717%, 92.498779%)" offset="0.296875"/><stop stop-opacity="1" stop-color="rgb(91.799927%, 92.199707%, 92.353821%)" offset="0.3125"/><stop stop-opacity="1" stop-color="rgb(91.702271%, 92.102051%, 92.204285%)" offset="0.320312"/><stop stop-opacity="1" stop-color="rgb(91.499329%, 91.899109%, 92.196655%)" offset="0.328125"/><stop stop-opacity="1" stop-color="rgb(91.200256%, 91.600037%, 91.999817%)" offset="0.34375"/><stop stop-opacity="1" stop-color="rgb(90.997314%, 91.397095%, 91.796875%)" offset="0.359375"/><stop stop-opacity="1" stop-color="rgb(90.794373%, 91.194153%, 91.593933%)" offset="0.375"/><stop stop-opacity="1" stop-color="rgb(90.498352%, 90.898132%, 91.297913%)" offset="0.4375"/><stop stop-opacity="1" stop-color="rgb(90.298462%, 90.698242%, 91.098022%)" offset="0.5"/><stop stop-opacity="1" stop-color="rgb(90.19928%, 90.59906%, 90.99884%)" offset="1"/></linearGradient><clipPath id="341ef23db3"><path d="M 14.378906 28.894531 L 33.621094 28.894531 L 33.621094 31.855469 L 14.378906 31.855469 Z M 14.378906 28.894531 " clip-rule="nonzero"/></clipPath><clipPath id="55bbcc37c0"><path d="M 33.621094 31.855469 L 14.378906 31.855469 L 14.75 28.894531 L 33.25 28.894531 Z M 33.621094 31.855469 " clip-rule="nonzero"/></clipPath><clipPath id="cbf1ee2385"><path d="M 33.621094 31.855469 L 14.378906 31.855469 L 14.75 28.894531 L 33.25 28.894531 L 33.621094 31.855469 " clip-rule="nonzero"/></clipPath><clipPath id="dd2570866e"><path d="M 1.058594 8.898438 L 14.75 8.898438 L 14.75 37.039062 L 1.058594 37.039062 Z M 1.058594 8.898438 " clip-rule="nonzero"/></clipPath><clipPath id="d5b4e240ac"><path d="M 10.308594 8.898438 L 1.429688 32.210938 C 1.175781 32.871094 0.457031 34.210938 2.167969 34.804688 L 7.347656 36.65625 C 7.742188 36.816406 9.578125 37.890625 10.308594 35.542969 L 14.75 20.007812 Z M 10.308594 8.898438 " clip-rule="nonzero"/></clipPath><clipPath id="4363ea0bf0"><path d="M 10.308594 8.898438 L 1.429688 32.210938 C 1.175781 32.871094 0.457031 34.210938 2.167969 34.804688 L 7.347656 36.65625 C 7.742188 36.816406 9.578125 37.890625 10.308594 35.542969 L 14.75 20.007812 L 10.308594 8.898438 " clip-rule="nonzero"/></clipPath><linearGradient x1="-0.353119" gradientTransform="matrix(0, 19.66569, -19.651056, 0, 7.906776, 15.842953)" y1="0" x2="1.077886" gradientUnits="userSpaceOnUse" y2="0" id="b103d1e595"><stop stop-opacity="1" stop-color="rgb(94.499207%, 94.898987%, 94.898987%)" offset="0"/><stop stop-opacity="1" stop-color="rgb(94.499207%, 94.898987%, 94.898987%)" offset="0.25"/><stop stop-opacity="1" stop-color="rgb(94.358826%, 94.758606%, 94.758606%)" offset="0.3125"/><stop stop-opacity="1" stop-color="rgb(94.030762%, 94.430542%, 94.430542%)" offset="0.375"/><stop stop-opacity="1" stop-color="rgb(93.65387%, 94.05365%, 94.05365%)" offset="0.4375"/><stop stop-opacity="1" stop-color="rgb(93.276978%, 93.676758%, 93.676758%)" offset="0.5"/><stop stop-opacity="1" stop-color="rgb(92.89856%, 93.299866%, 93.299866%)" offset="0.5625"/><stop stop-opacity="1" stop-color="rgb(92.54303%, 92.922974%, 93.005371%)" offset="0.625"/><stop stop-opacity="1" stop-color="rgb(92.210388%, 92.558289%, 92.82074%)" offset="0.65625"/><stop stop-opacity="1" stop-color="rgb(91.921997%, 92.29126%, 92.62085%)" offset="0.6875"/><stop stop-opacity="1" stop-color="rgb(91.73584%, 92.137146%, 92.451477%)" offset="0.71875"/><stop stop-opacity="1" stop-color="rgb(91.53595%, 91.937256%, 92.301941%)" offset="0.75"/><stop stop-opacity="1" stop-color="rgb(91.345215%, 91.744995%, 92.144775%)" offset="0.78125"/><stop stop-opacity="1" stop-color="rgb(91.145325%, 91.545105%, 91.944885%)" offset="0.8125"/><stop stop-opacity="1" stop-color="rgb(90.959167%, 91.358948%, 91.760254%)" offset="0.84375"/><stop stop-opacity="1" stop-color="rgb(90.759277%, 91.159058%, 91.558838%)" offset="0.875"/><stop stop-opacity="1" stop-color="rgb(90.444946%, 90.844727%, 91.246033%)" offset="1"/></linearGradient><clipPath id="5f225cc1ea"><path d="M 33.253906 8.898438 L 46.941406 8.898438 L 46.941406 37.039062 L 33.253906 37.039062 Z M 33.253906 8.898438 " clip-rule="nonzero"/></clipPath><clipPath id="dda65079b1"><path d="M 37.691406 8.898438 L 46.574219 32.210938 C 46.828125 32.871094 47.542969 34.210938 45.832031 34.804688 L 40.652344 36.65625 C 40.261719 36.816406 38.425781 37.890625 37.691406 35.542969 L 33.253906 20.007812 Z M 37.691406 8.898438 " clip-rule="nonzero"/></clipPath><clipPath id="ad03cabd45"><path d="M 37.691406 8.898438 L 46.574219 32.210938 C 46.828125 32.871094 47.542969 34.210938 45.832031 34.804688 L 40.652344 36.65625 C 40.261719 36.816406 38.425781 37.890625 37.691406 35.542969 L 33.253906 20.007812 L 37.691406 8.898438 " clip-rule="nonzero"/></clipPath><linearGradient x1="-0.353119" gradientTransform="matrix(0, 19.66569, -19.651056, 0, 40.097665, 15.842953)" y1="0" x2="1.077886" gradientUnits="userSpaceOnUse" y2="0" id="f3b55fc78a"><stop stop-opacity="1" stop-color="rgb(94.499207%, 94.898987%, 94.898987%)" offset="0"/><stop stop-opacity="1" stop-color="rgb(94.499207%, 94.898987%, 94.898987%)" offset="0.25"/><stop stop-opacity="1" stop-color="rgb(94.358826%, 94.758606%, 94.758606%)" offset="0.3125"/><stop stop-opacity="1" stop-color="rgb(94.030762%, 94.430542%, 94.430542%)" offset="0.375"/><stop stop-opacity="1" stop-color="rgb(93.65387%, 94.05365%, 94.05365%)" offset="0.4375"/><stop stop-opacity="1" stop-color="rgb(93.276978%, 93.676758%, 93.676758%)" offset="0.5"/><stop stop-opacity="1" stop-color="rgb(92.89856%, 93.299866%, 93.299866%)" offset="0.5625"/><stop stop-opacity="1" stop-color="rgb(92.54303%, 92.922974%, 93.005371%)" offset="0.625"/><stop stop-opacity="1" stop-color="rgb(92.210388%, 92.558289%, 92.82074%)" offset="0.65625"/><stop stop-opacity="1" stop-color="rgb(91.921997%, 92.29126%, 92.62085%)" offset="0.6875"/><stop stop-opacity="1" stop-color="rgb(91.73584%, 92.137146%, 92.451477%)" offset="0.71875"/><stop stop-opacity="1" stop-color="rgb(91.53595%, 91.937256%, 92.301941%)" offset="0.75"/><stop stop-opacity="1" stop-color="rgb(91.345215%, 91.744995%, 92.144775%)" offset="0.78125"/><stop stop-opacity="1" stop-color="rgb(91.145325%, 91.545105%, 91.944885%)" offset="0.8125"/><stop stop-opacity="1" stop-color="rgb(90.959167%, 91.358948%, 91.760254%)" offset="0.84375"/><stop stop-opacity="1" stop-color="rgb(90.759277%, 91.159058%, 91.558838%)" offset="0.875"/><stop stop-opacity="1" stop-color="rgb(90.444946%, 90.844727%, 91.246033%)" offset="1"/></linearGradient><clipPath id="4d14979e93"><path d="M 18.820312 0.753906 L 29.179688 0.753906 L 29.179688 13.34375 L 18.820312 13.34375 Z M 18.820312 0.753906 " clip-rule="nonzero"/></clipPath><clipPath id="2dd0d952e1"><path d="M 19.964844 -2.5 L 14.875 11.949219 L 28.035156 16.59375 L 33.125 2.144531 Z M 19.964844 -2.5 " clip-rule="nonzero"/></clipPath><linearGradient x1="-0.01395" gradientTransform="matrix(27.627366, 9.751023, -9.743768, 27.647936, 17.805639, 4.859771)" y1="0" x2="0.462398" gradientUnits="userSpaceOnUse" y2="0" id="9946d8cde6"><stop stop-opacity="1" stop-color="rgb(94.499207%, 94.898987%, 94.898987%)" offset="0"/><stop stop-opacity="1" stop-color="rgb(94.499207%, 94.898987%, 94.898987%)" offset="0.125"/><stop stop-opacity="1" stop-color="rgb(94.398499%, 94.798279%, 94.798279%)" offset="0.1875"/><stop stop-opacity="1" stop-color="rgb(94.198608%, 94.599915%, 94.599915%)" offset="0.25"/><stop stop-opacity="1" stop-color="rgb(94.099426%, 94.499207%, 94.499207%)" offset="0.375"/><stop stop-opacity="1" stop-color="rgb(94.000244%, 94.400024%, 94.400024%)" offset="0.4375"/><stop stop-opacity="1" stop-color="rgb(93.800354%, 94.200134%, 94.200134%)" offset="0.5"/><stop stop-opacity="1" stop-color="rgb(93.600464%, 94.000244%, 94.000244%)" offset="0.5625"/><stop stop-opacity="1" stop-color="rgb(93.400574%, 93.800354%, 93.800354%)" offset="0.625"/><stop stop-opacity="1" stop-color="rgb(93.299866%, 93.699646%, 93.699646%)" offset="0.75"/><stop stop-opacity="1" stop-color="rgb(93.200684%, 93.600464%, 93.600464%)" offset="0.8125"/><stop stop-opacity="1" stop-color="rgb(93.002319%, 93.4021%, 93.4021%)" offset="0.875"/><stop stop-opacity="1" stop-color="rgb(92.802429%, 93.202209%, 93.301392%)" offset="0.9375"/><stop stop-opacity="1" stop-color="rgb(92.602539%, 93.002319%, 93.299866%)" offset="1"/></linearGradient><clipPath id="2a1b05e531"><path d="M 18.820312 0.753906 L 29.179688 0.753906 L 29.179688 2.972656 L 18.820312 2.972656 Z M 18.820312 0.753906 " clip-rule="nonzero"/></clipPath><linearGradient x1="-0.0000357948" gradientTransform="matrix(10.360286, 0, 0, 10.368, 18.820227, 1.863186)" y1="0" x2="0.999964" gradientUnits="userSpaceOnUse" y2="0" id="679caa4dad"><stop stop-opacity="1" stop-color="rgb(87.098694%, 88.198853%, 88.198853%)" offset="0"/><stop stop-opacity="1" stop-color="rgb(87.098694%, 88.198853%, 88.198853%)" offset="0.0625"/><stop stop-opacity="1" stop-color="rgb(86.999512%, 88.09967%, 88.09967%)" offset="0.09375"/><stop stop-opacity="1" stop-color="rgb(86.799622%, 87.89978%, 87.89978%)" offset="0.125"/><stop stop-opacity="1" stop-color="rgb(86.698914%, 87.649536%, 87.799072%)" offset="0.1875"/><stop stop-opacity="1" stop-color="rgb(86.599731%, 87.5%, 87.724304%)" offset="0.21875"/><stop stop-opacity="1" stop-color="rgb(86.399841%, 87.5%, 87.574768%)" offset="0.25"/><stop stop-opacity="1" stop-color="rgb(86.299133%, 87.400818%, 87.5%)" offset="0.28125"/><stop stop-opacity="1" stop-color="rgb(86.299133%, 87.202454%, 87.5%)" offset="0.3125"/><stop stop-opacity="1" stop-color="rgb(86.199951%, 87.10022%, 87.400818%)" offset="0.34375"/><stop stop-opacity="1" stop-color="rgb(86.000061%, 87.098694%, 87.200928%)" offset="0.375"/><stop stop-opacity="1" stop-color="rgb(85.899353%, 86.999512%, 87.098694%)" offset="0.40625"/><stop stop-opacity="1" stop-color="rgb(85.899353%, 86.801147%, 87.098694%)" offset="0.4375"/><stop stop-opacity="1" stop-color="rgb(85.800171%, 86.601257%, 86.999512%)" offset="0.46875"/><stop stop-opacity="1" stop-color="rgb(85.600281%, 86.399841%, 86.799622%)" offset="0.5"/><stop stop-opacity="1" stop-color="rgb(85.499573%, 86.299133%, 86.698914%)" offset="0.5625"/><stop stop-opacity="1" stop-color="rgb(85.400391%, 86.199951%, 86.599731%)" offset="0.59375"/><stop stop-opacity="1" stop-color="rgb(85.2005%, 86.000061%, 86.399841%)" offset="0.625"/><stop stop-opacity="1" stop-color="rgb(85.099792%, 85.800171%, 86.299133%)" offset="0.65625"/><stop stop-opacity="1" stop-color="rgb(85.099792%, 85.601807%, 86.299133%)" offset="0.6875"/><stop stop-opacity="1" stop-color="rgb(85.00061%, 85.501099%, 86.199951%)" offset="0.71875"/><stop stop-opacity="1" stop-color="rgb(84.80072%, 85.499573%, 86.000061%)" offset="0.75"/><stop stop-opacity="1" stop-color="rgb(84.698486%, 85.400391%, 85.899353%)" offset="0.78125"/><stop stop-opacity="1" stop-color="rgb(84.698486%, 85.202026%, 85.899353%)" offset="0.8125"/><stop stop-opacity="1" stop-color="rgb(84.599304%, 85.101318%, 85.800171%)" offset="0.84375"/><stop stop-opacity="1" stop-color="rgb(84.399414%, 85.099792%, 85.600281%)" offset="0.875"/><stop stop-opacity="1" stop-color="rgb(84.298706%, 85.00061%, 85.499573%)" offset="0.90625"/><stop stop-opacity="1" stop-color="rgb(84.298706%, 84.802246%, 85.499573%)" offset="0.9375"/><stop stop-opacity="1" stop-color="rgb(84.199524%, 84.602356%, 85.400391%)" offset="0.96875"/><stop stop-opacity="1" stop-color="rgb(83.999634%, 84.399414%, 85.2005%)" offset="1"/></linearGradient><clipPath id="6800684678"><path d="M 10.308594 0.753906 L 35 0.753906 L 35 28.894531 L 10.308594 28.894531 Z M 10.308594 0.753906 " clip-rule="nonzero"/></clipPath><clipPath id="5aa0affa18"><path d="M 16.96875 4.457031 L 18.820312 0.753906 C 24.371094 15.933594 34.734375 27.78125 34.734375 27.78125 C 34.558594 28.425781 33.921875 28.894531 33.257812 28.894531 L 14.746094 28.894531 C 14.078125 28.894531 13.441406 28.425781 13.265625 27.78125 L 10.308594 8.898438 Z M 16.96875 4.457031 " clip-rule="nonzero"/></clipPath><clipPath id="552079e62e"><path d="M 16.96875 4.457031 L 18.820312 0.753906 C 24.371094 15.933594 34.734375 27.78125 34.734375 27.78125 C 34.558594 28.425781 33.921875 28.894531 33.257812 28.894531 L 14.746094 28.894531 C 14.078125 28.894531 13.441406 28.425781 13.265625 27.78125 L 10.308594 8.898438 L 16.96875 4.457031 " clip-rule="nonzero"/></clipPath><clipPath id="b7de675a88"><path d="M 17.710938 0.753906 L 35 0.753906 L 35 28.894531 L 17.710938 28.894531 Z M 17.710938 0.753906 " clip-rule="nonzero"/></clipPath><clipPath id="18f2b6828e"><path d="M 17.710938 2.972656 L 18.820312 0.753906 C 24.371094 15.933594 34.734375 27.78125 34.734375 27.78125 C 34.558594 28.425781 33.921875 28.894531 33.257812 28.894531 L 33.25 28.894531 C 33.25 28.894531 23.261719 18.15625 17.710938 2.972656 Z M 17.710938 2.972656 " clip-rule="nonzero"/></clipPath><clipPath id="d65a2e80e7"><path d="M 17.710938 2.972656 L 18.820312 0.753906 C 24.371094 15.933594 34.734375 27.78125 34.734375 27.78125 C 34.558594 28.425781 33.921875 28.894531 33.257812 28.894531 L 33.25 28.894531 C 33.25 28.894531 23.261719 18.15625 17.710938 2.972656 " clip-rule="nonzero"/></clipPath><clipPath id="d7c6759a48"><path d="M 4.777344 20.34375 L 29.5625 36.730469 L 47.667969 9.300781 L 22.882812 -7.082031 Z M 4.777344 20.34375 " clip-rule="nonzero"/></clipPath><linearGradient x1="-0.32716" gradientTransform="matrix(3.202624, -4.851985, 4.848375, 3.205009, 18.377717, 27.055548)" y1="0" x2="5.325942" gradientUnits="userSpaceOnUse" y2="0" id="a39a39393a"><stop stop-opacity="1" stop-color="rgb(87.098694%, 88.198853%, 88.198853%)" offset="0"/><stop stop-opacity="1" stop-color="rgb(87.098694%, 88.198853%, 88.198853%)" offset="0.0625"/><stop stop-opacity="1" stop-color="rgb(87.001038%, 88.101196%, 88.101196%)" offset="0.0703125"/><stop stop-opacity="1" stop-color="rgb(86.801147%, 87.901306%, 87.901306%)" offset="0.078125"/><stop stop-opacity="1" stop-color="rgb(86.698914%, 87.651062%, 87.799072%)" offset="0.09375"/><stop stop-opacity="1" stop-color="rgb(86.598206%, 87.501526%, 87.722778%)" offset="0.101562"/><stop stop-opacity="1" stop-color="rgb(86.393738%, 87.495422%, 87.568665%)" offset="0.109375"/><stop stop-opacity="1" stop-color="rgb(86.094666%, 87.295532%, 87.295532%)" offset="0.125"/><stop stop-opacity="1" stop-color="rgb(85.899353%, 86.904907%, 87.098694%)" offset="0.140625"/><stop stop-opacity="1" stop-color="rgb(85.800171%, 86.605835%, 86.999512%)" offset="0.148438"/><stop stop-opacity="1" stop-color="rgb(85.597229%, 86.39679%, 86.798096%)" offset="0.15625"/><stop stop-opacity="1" stop-color="rgb(85.298157%, 86.097717%, 86.499023%)" offset="0.171875"/><stop stop-opacity="1" stop-color="rgb(84.907532%, 85.707092%, 86.108398%)" offset="0.1875"/><stop stop-opacity="1" stop-color="rgb(84.70459%, 85.40802%, 85.905457%)" offset="0.195312"/><stop stop-opacity="1" stop-color="rgb(84.69696%, 85.2005%, 85.897827%)" offset="0.203125"/><stop stop-opacity="1" stop-color="rgb(84.501648%, 84.901428%, 85.700989%)" offset="0.21875"/><stop stop-opacity="1" stop-color="rgb(84.204102%, 84.603882%, 85.403442%)" offset="0.234375"/><stop stop-opacity="1" stop-color="rgb(83.999634%, 84.40094%, 85.2005%)" offset="0.25"/><stop stop-opacity="1" stop-color="rgb(83.898926%, 84.298706%, 85.099792%)" offset="0.5"/><stop stop-opacity="1" stop-color="rgb(83.898926%, 84.298706%, 85.099792%)" offset="1"/></linearGradient><clipPath id="b949ded5ed"><path d="M 13 0.753906 L 37.691406 0.753906 L 37.691406 28.894531 L 13 28.894531 Z M 13 0.753906 " clip-rule="nonzero"/></clipPath><clipPath id="879615050b"><path d="M 31.03125 4.457031 L 29.179688 0.753906 C 23.628906 15.933594 13.265625 27.78125 13.265625 27.78125 C 13.441406 28.425781 14.078125 28.894531 14.746094 28.894531 L 33.257812 28.894531 C 33.921875 28.894531 34.558594 28.425781 34.734375 27.78125 L 37.691406 8.898438 Z M 31.03125 4.457031 " clip-rule="nonzero"/></clipPath><clipPath id="5b6f603799"><path d="M 31.03125 4.457031 L 29.179688 0.753906 C 23.628906 15.933594 13.265625 27.78125 13.265625 27.78125 C 13.441406 28.425781 14.078125 28.894531 14.746094 28.894531 L 33.257812 28.894531 C 33.921875 28.894531 34.558594 28.425781 34.734375 27.78125 L 37.691406 8.898438 L 31.03125 4.457031 " clip-rule="nonzero"/></clipPath><clipPath id="f5b84915b8"><path d="M 13.402344 -1.078125 L 11.160156 28.734375 L 37.554688 30.722656 L 39.792969 0.910156 Z M 13.402344 -1.078125 " clip-rule="nonzero"/></clipPath><linearGradient x1="-0.435624" gradientTransform="matrix(25.870869, 1.948507, -1.947057, 25.890132, 23.532059, 14.941939)" y1="0" x2="0.584516" gradientUnits="userSpaceOnUse" y2="0" id="e8fcf06280"><stop stop-opacity="1" stop-color="rgb(94.499207%, 94.898987%, 94.898987%)" offset="0"/><stop stop-opacity="1" stop-color="rgb(94.497681%, 94.897461%, 94.897461%)" offset="0.5"/><stop stop-opacity="1" stop-color="rgb(94.396973%, 94.796753%, 94.796753%)" offset="0.53125"/><stop stop-opacity="1" stop-color="rgb(94.198608%, 94.598389%, 94.598389%)" offset="0.5625"/><stop stop-opacity="1" stop-color="rgb(93.998718%, 94.398499%, 94.398499%)" offset="0.59375"/><stop stop-opacity="1" stop-color="rgb(93.797302%, 94.197083%, 94.198608%)" offset="0.625"/><stop stop-opacity="1" stop-color="rgb(93.597412%, 93.997192%, 94.099426%)" offset="0.65625"/><stop stop-opacity="1" stop-color="rgb(93.399048%, 93.798828%, 94.099426%)" offset="0.6875"/><stop stop-opacity="1" stop-color="rgb(93.299866%, 93.699646%, 93.998718%)" offset="0.71875"/><stop stop-opacity="1" stop-color="rgb(93.29834%, 93.69812%, 93.797302%)" offset="0.75"/><stop stop-opacity="1" stop-color="rgb(93.197632%, 93.597412%, 93.597412%)" offset="0.78125"/><stop stop-opacity="1" stop-color="rgb(92.999268%, 93.399048%, 93.399048%)" offset="0.8125"/><stop stop-opacity="1" stop-color="rgb(92.797852%, 93.199158%, 93.299866%)" offset="0.84375"/><stop stop-opacity="1" stop-color="rgb(92.597961%, 92.997742%, 93.29834%)" offset="0.875"/><stop stop-opacity="1" stop-color="rgb(92.498779%, 92.89856%, 93.197632%)" offset="0.90625"/><stop stop-opacity="1" stop-color="rgb(92.498779%, 92.89856%, 92.997742%)" offset="0.9375"/><stop stop-opacity="1" stop-color="rgb(92.422485%, 92.797852%, 92.797852%)" offset="0.96875"/><stop stop-opacity="1" stop-color="rgb(92.272949%, 92.597961%, 92.597961%)" offset="1"/></linearGradient><clipPath id="cdd07ed82f"><path d="M 13 0.753906 L 30.289062 0.753906 L 30.289062 28.894531 L 13 28.894531 Z M 13 0.753906 " clip-rule="nonzero"/></clipPath><clipPath id="f8e8da786e"><path d="M 30.289062 2.972656 L 29.179688 0.753906 C 23.628906 15.933594 13.265625 27.78125 13.265625 27.78125 C 13.441406 28.425781 14.078125 28.894531 14.746094 28.894531 L 14.75 28.894531 C 14.75 28.894531 24.738281 18.15625 30.289062 2.972656 Z M 30.289062 2.972656 " clip-rule="nonzero"/></clipPath><clipPath id="97c1e700ba"><path d="M 30.289062 2.972656 L 29.179688 0.753906 C 23.628906 15.933594 13.265625 27.78125 13.265625 27.78125 C 13.441406 28.425781 14.078125 28.894531 14.746094 28.894531 L 14.75 28.894531 C 14.75 28.894531 24.738281 18.15625 30.289062 2.972656 " clip-rule="nonzero"/></clipPath><clipPath id="d1c75cc66b"><path d="M 31.707031 0.824219 L 13.308594 -0.105469 L 11.847656 28.820312 L 30.246094 29.75 Z M 31.707031 0.824219 " clip-rule="nonzero"/></clipPath><linearGradient x1="0.858789" gradientTransform="matrix(-0.308313, 6.109716, -6.10517, -0.308543, 22.800437, -4.886522)" y1="0" x2="5.593598" gradientUnits="userSpaceOnUse" y2="0" id="8ac641f32e"><stop stop-opacity="1" stop-color="rgb(90.99884%, 91.398621%, 91.398621%)" offset="0"/><stop stop-opacity="1" stop-color="rgb(90.803528%, 91.203308%, 91.398621%)" offset="0.015625"/><stop stop-opacity="1" stop-color="rgb(90.505981%, 90.905762%, 91.299438%)" offset="0.0234375"/><stop stop-opacity="1" stop-color="rgb(90.299988%, 90.699768%, 91.099548%)" offset="0.03125"/><stop stop-opacity="1" stop-color="rgb(90.19928%, 90.59906%, 90.99884%)" offset="0.0625"/><stop stop-opacity="1" stop-color="rgb(90.19928%, 90.59906%, 90.99884%)" offset="0.125"/><stop stop-opacity="1" stop-color="rgb(90.19928%, 90.59906%, 90.99884%)" offset="0.25"/><stop stop-opacity="1" stop-color="rgb(90.19928%, 90.59906%, 90.99884%)" offset="0.5"/><stop stop-opacity="1" stop-color="rgb(90.19928%, 90.59906%, 90.99884%)" offset="1"/></linearGradient><clipPath id="ab89a33213"><path d="M 15.488281 30.746094 L 23.628906 30.746094 L 23.628906 41.484375 L 15.488281 41.484375 Z M 15.488281 30.746094 " clip-rule="nonzero"/></clipPath><clipPath id="7fb0f0e542"><path d="M 17.710938 41.113281 L 15.859375 40.003906 C 15.550781 39.789062 15.214844 39.707031 15.859375 38.890625 L 21.78125 30.746094 L 23.628906 31.855469 L 18.820312 41.113281 C 18.5 41.808594 18.195312 41.351562 17.710938 41.113281 Z M 17.710938 41.113281 " clip-rule="nonzero"/></clipPath><clipPath id="9dba266a26"><path d="M 17.710938 41.113281 L 15.859375 40.003906 C 15.550781 39.789062 15.214844 39.707031 15.859375 38.890625 L 21.78125 30.746094 L 23.628906 31.855469 L 18.820312 41.113281 C 18.5 41.808594 18.195312 41.351562 17.710938 41.113281 " clip-rule="nonzero"/></clipPath><linearGradient x1="0.425845" gradientTransform="matrix(0, 1.955579, -1.954124, 0, 19.560985, 29.912698)" y1="0" x2="5.916949" gradientUnits="userSpaceOnUse" y2="0" id="8bc6f225e6"><stop stop-opacity="1" stop-color="rgb(43.099976%, 37.298584%, 37.998962%)" offset="0"/><stop stop-opacity="1" stop-color="rgb(42.193604%, 36.743164%, 37.471008%)" offset="0.00390625"/><stop stop-opacity="1" stop-color="rgb(41.288757%, 36.187744%, 36.943054%)" offset="0.0078125"/><stop stop-opacity="1" stop-color="rgb(40.530396%, 35.629272%, 36.206055%)" offset="0.0117188"/><stop stop-opacity="1" stop-color="rgb(39.772034%, 35.070801%, 35.470581%)" offset="0.015625"/><stop stop-opacity="1" stop-color="rgb(38.922119%, 34.402466%, 34.822083%)" offset="0.0195312"/><stop stop-opacity="1" stop-color="rgb(38.07373%, 33.735657%, 34.173584%)" offset="0.0234375"/><stop stop-opacity="1" stop-color="rgb(37.355042%, 33.151245%, 33.605957%)" offset="0.0273437"/><stop stop-opacity="1" stop-color="rgb(36.637878%, 32.568359%, 33.03833%)" offset="0.03125"/><stop stop-opacity="1" stop-color="rgb(35.879517%, 31.893921%, 32.514954%)" offset="0.0351562"/><stop stop-opacity="1" stop-color="rgb(35.121155%, 31.221008%, 31.993103%)" offset="0.0390625"/><stop stop-opacity="1" stop-color="rgb(34.162903%, 30.662537%, 31.37207%)" offset="0.0429687"/><stop stop-opacity="1" stop-color="rgb(33.204651%, 30.104065%, 30.752563%)" offset="0.046875"/><stop stop-opacity="1" stop-color="rgb(32.496643%, 29.545593%, 30.172729%)" offset="0.0507812"/><stop stop-opacity="1" stop-color="rgb(31.788635%, 28.988647%, 29.592896%)" offset="0.0546875"/><stop stop-opacity="1" stop-color="rgb(31.030273%, 28.33252%, 29.013062%)" offset="0.0585937"/><stop stop-opacity="1" stop-color="rgb(30.271912%, 27.676392%, 28.434753%)" offset="0.0625"/><stop stop-opacity="1" stop-color="rgb(29.412842%, 27.076721%, 27.854919%)" offset="0.0664062"/><stop stop-opacity="1" stop-color="rgb(28.555298%, 26.477051%, 27.276611%)" offset="0.0703125"/><stop stop-opacity="1" stop-color="rgb(27.845764%, 25.897217%, 26.60675%)" offset="0.0742188"/><stop stop-opacity="1" stop-color="rgb(27.137756%, 25.318909%, 25.938416%)" offset="0.078125"/><stop stop-opacity="1" stop-color="rgb(26.179504%, 24.67041%, 25.379944%)" offset="0.0820312"/><stop stop-opacity="1" stop-color="rgb(25.221252%, 24.021912%, 24.821472%)" offset="0.0859375"/><stop stop-opacity="1" stop-color="rgb(24.462891%, 23.475647%, 24.263%)" offset="0.0898438"/><stop stop-opacity="1" stop-color="rgb(23.704529%, 22.929382%, 23.704529%)" offset="0.09375"/><stop stop-opacity="1" stop-color="rgb(22.996521%, 22.407532%, 23.152161%)" offset="0.0976562"/><stop stop-opacity="1" stop-color="rgb(22.288513%, 21.887207%, 22.601318%)" offset="0.101563"/><stop stop-opacity="1" stop-color="rgb(21.943665%, 21.542358%, 22.299194%)" offset="0.105469"/><stop stop-opacity="1" stop-color="rgb(21.598816%, 21.199036%, 21.998596%)" offset="0.109375"/><stop stop-opacity="1" stop-color="rgb(21.598816%, 21.199036%, 21.998596%)" offset="0.125"/><stop stop-opacity="1" stop-color="rgb(21.598816%, 21.199036%, 21.998596%)" offset="0.25"/><stop stop-opacity="1" stop-color="rgb(21.598816%, 21.199036%, 21.998596%)" offset="0.5"/><stop stop-opacity="1" stop-color="rgb(21.598816%, 21.199036%, 21.998596%)" offset="1"/></linearGradient><clipPath id="459c022360"><path d="M 24.371094 30.746094 L 32.511719 30.746094 L 32.511719 41.484375 L 24.371094 41.484375 Z M 24.371094 30.746094 " clip-rule="nonzero"/></clipPath><clipPath id="b5121ac7b0"><path d="M 30.292969 41.113281 L 32.140625 40.003906 C 32.453125 39.789062 32.785156 39.707031 32.140625 38.890625 L 26.222656 30.746094 L 24.371094 31.855469 L 29.179688 41.113281 C 29.5 41.808594 29.808594 41.351562 30.292969 41.113281 Z M 30.292969 41.113281 " clip-rule="nonzero"/></clipPath><clipPath id="6ccff8d793"><path d="M 30.292969 41.113281 L 32.140625 40.003906 C 32.453125 39.789062 32.785156 39.707031 32.140625 38.890625 L 26.222656 30.746094 L 24.371094 31.855469 L 29.179688 41.113281 C 29.5 41.808594 29.808594 41.351562 30.292969 41.113281 " clip-rule="nonzero"/></clipPath><linearGradient x1="0.426035" gradientTransform="matrix(0, 1.955579, 1.954124, 0, 28.44123, 29.912328)" y1="0" x2="5.917139" gradientUnits="userSpaceOnUse" y2="0" id="e99e0d8758"><stop stop-opacity="1" stop-color="rgb(43.096924%, 37.298584%, 37.997437%)" offset="0"/><stop stop-opacity="1" stop-color="rgb(42.189026%, 36.740112%, 37.467957%)" offset="0.00390625"/><stop stop-opacity="1" stop-color="rgb(41.281128%, 36.181641%, 36.940002%)" offset="0.0078125"/><stop stop-opacity="1" stop-color="rgb(40.522766%, 35.623169%, 36.201477%)" offset="0.0117188"/><stop stop-opacity="1" stop-color="rgb(39.764404%, 35.064697%, 35.464478%)" offset="0.015625"/><stop stop-opacity="1" stop-color="rgb(38.91449%, 34.397888%, 34.814453%)" offset="0.0195313"/><stop stop-opacity="1" stop-color="rgb(38.064575%, 33.731079%, 34.164429%)" offset="0.0234375"/><stop stop-opacity="1" stop-color="rgb(37.347412%, 33.148193%, 33.596802%)" offset="0.0273438"/><stop stop-opacity="1" stop-color="rgb(36.631775%, 32.565308%, 33.030701%)" offset="0.03125"/><stop stop-opacity="1" stop-color="rgb(35.873413%, 31.889343%, 32.50885%)" offset="0.0351562"/><stop stop-opacity="1" stop-color="rgb(35.115051%, 31.214905%, 31.987%)" offset="0.0390625"/><stop stop-opacity="1" stop-color="rgb(34.156799%, 30.656433%, 31.367493%)" offset="0.0429688"/><stop stop-opacity="1" stop-color="rgb(33.198547%, 30.097961%, 30.747986%)" offset="0.046875"/><stop stop-opacity="1" stop-color="rgb(32.489014%, 29.53949%, 30.168152%)" offset="0.0507812"/><stop stop-opacity="1" stop-color="rgb(31.781006%, 28.981018%, 29.589844%)" offset="0.0546875"/><stop stop-opacity="1" stop-color="rgb(31.022644%, 28.326416%, 29.01001%)" offset="0.0585938"/><stop stop-opacity="1" stop-color="rgb(30.264282%, 27.67334%, 28.431702%)" offset="0.0625"/><stop stop-opacity="1" stop-color="rgb(29.405212%, 27.073669%, 27.851868%)" offset="0.0664062"/><stop stop-opacity="1" stop-color="rgb(28.547668%, 26.473999%, 27.27356%)" offset="0.0703125"/><stop stop-opacity="1" stop-color="rgb(27.839661%, 25.894165%, 26.602173%)" offset="0.0742188"/><stop stop-opacity="1" stop-color="rgb(27.131653%, 25.315857%, 25.930786%)" offset="0.078125"/><stop stop-opacity="1" stop-color="rgb(26.173401%, 24.664307%, 25.372314%)" offset="0.0820312"/><stop stop-opacity="1" stop-color="rgb(25.215149%, 24.014282%, 24.813843%)" offset="0.0859375"/><stop stop-opacity="1" stop-color="rgb(24.456787%, 23.468018%, 24.255371%)" offset="0.0898438"/><stop stop-opacity="1" stop-color="rgb(23.698425%, 22.923279%, 23.698425%)" offset="0.09375"/><stop stop-opacity="1" stop-color="rgb(22.988892%, 22.401428%, 23.146057%)" offset="0.0976563"/><stop stop-opacity="1" stop-color="rgb(22.280884%, 21.881104%, 22.595215%)" offset="0.101563"/><stop stop-opacity="1" stop-color="rgb(21.939087%, 21.539307%, 22.296143%)" offset="0.105469"/><stop stop-opacity="1" stop-color="rgb(21.598816%, 21.199036%, 21.998596%)" offset="0.109375"/><stop stop-opacity="1" stop-color="rgb(21.598816%, 21.199036%, 21.998596%)" offset="0.125"/><stop stop-opacity="1" stop-color="rgb(21.598816%, 21.199036%, 21.998596%)" offset="0.25"/><stop stop-opacity="1" stop-color="rgb(21.598816%, 21.199036%, 21.998596%)" offset="0.5"/><stop stop-opacity="1" stop-color="rgb(21.598816%, 21.199036%, 21.998596%)" offset="1"/></linearGradient><clipPath id="816f8da32a"><path d="M 21.039062 28.152344 L 26.960938 28.152344 L 26.960938 32.597656 L 21.039062 32.597656 Z M 21.039062 28.152344 " clip-rule="nonzero"/></clipPath><clipPath id="b561d4de93"><path d="M 25.851562 32.597656 L 22.148438 32.597656 C 21.539062 32.597656 21.039062 32.097656 21.039062 31.484375 L 21.039062 29.265625 C 21.039062 28.652344 21.539062 28.152344 22.148438 28.152344 L 25.851562 28.152344 C 26.460938 28.152344 26.960938 28.652344 26.960938 29.265625 L 26.960938 31.484375 C 26.960938 32.097656 26.460938 32.597656 25.851562 32.597656 Z M 25.851562 32.597656 " clip-rule="nonzero"/></clipPath><clipPath id="c93f958195"><path d="M 25.851562 32.597656 L 22.148438 32.597656 C 21.539062 32.597656 21.039062 32.097656 21.039062 31.484375 L 21.039062 29.265625 C 21.039062 28.652344 21.539062 28.152344 22.148438 28.152344 L 25.851562 28.152344 C 26.460938 28.152344 26.960938 28.652344 26.960938 29.265625 L 26.960938 31.484375 C 26.960938 32.097656 26.460938 32.597656 25.851562 32.597656 " clip-rule="nonzero"/></clipPath><clipPath id="896134ed35"><path d="M 37.691406 32 L 46.941406 32 L 46.941406 37.039062 L 37.691406 37.039062 Z M 37.691406 32 " clip-rule="nonzero"/></clipPath><clipPath id="bb62fa332a"><path d="M 40.652344 36.65625 L 45.832031 34.804688 C 47.542969 34.210938 46.828125 32.871094 46.574219 32.210938 L 37.691406 35.542969 C 38.425781 37.890625 40.261719 36.816406 40.652344 36.65625 Z M 40.652344 36.65625 " clip-rule="nonzero"/></clipPath><clipPath id="0879e85fed"><path d="M 40.652344 36.65625 L 45.832031 34.804688 C 47.542969 34.210938 46.828125 32.871094 46.574219 32.210938 L 37.691406 35.542969 C 38.425781 37.890625 40.261719 36.816406 40.652344 36.65625 " clip-rule="nonzero"/></clipPath><clipPath id="16ada135a7"><path d="M 1.058594 32 L 10.308594 32 L 10.308594 37.039062 L 1.058594 37.039062 Z M 1.058594 32 " clip-rule="nonzero"/></clipPath><clipPath id="ca8edfa127"><path d="M 7.347656 36.65625 L 2.167969 34.804688 C 0.457031 34.210938 1.171875 32.871094 1.425781 32.210938 L 10.308594 35.542969 C 9.574219 37.890625 7.738281 36.816406 7.347656 36.65625 Z M 7.347656 36.65625 " clip-rule="nonzero"/></clipPath><clipPath id="7a7e2621fd"><path d="M 7.347656 36.65625 L 2.167969 34.804688 C 0.457031 34.210938 1.171875 32.871094 1.425781 32.210938 L 10.308594 35.542969 C 9.574219 37.890625 7.738281 36.816406 7.347656 36.65625 " clip-rule="nonzero"/></clipPath><clipPath id="48cff03673"><path d="M 0.488281 0.382812 L 47.507812 0.382812 L 47.507812 46.667969 L 0.488281 46.667969 Z M 0.488281 0.382812 " clip-rule="nonzero"/></clipPath></defs><g fill="#000000" fill-opacity="1"><g transform="translate(18.561223, 21.893879)"><g><path d="M 1.15625 -1.609375 C 1.15625 -1.296875 1.207031 -1.054688 1.3125 -0.890625 C 1.414062 -0.722656 1.585938 -0.640625 1.828125 -0.640625 C 2.054688 -0.640625 2.222656 -0.71875 2.328125 -0.875 C 2.429688 -1.039062 2.484375 -1.285156 2.484375 -1.609375 C 2.484375 -1.921875 2.429688 -2.15625 2.328125 -2.3125 C 2.222656 -2.476562 2.050781 -2.5625 1.8125 -2.5625 C 1.582031 -2.5625 1.414062 -2.484375 1.3125 -2.328125 C 1.207031 -2.171875 1.15625 -1.929688 1.15625 -1.609375 Z M 3.375 -1.609375 C 3.375 -1.085938 3.234375 -0.675781 2.953125 -0.375 C 2.679688 -0.0820312 2.300781 0.0625 1.8125 0.0625 C 1.5 0.0625 1.222656 -0.00390625 0.984375 -0.140625 C 0.753906 -0.273438 0.578125 -0.46875 0.453125 -0.71875 C 0.328125 -0.976562 0.265625 -1.273438 0.265625 -1.609375 C 0.265625 -2.128906 0.398438 -2.535156 0.671875 -2.828125 C 0.941406 -3.117188 1.328125 -3.265625 1.828125 -3.265625 C 2.140625 -3.265625 2.410156 -3.195312 2.640625 -3.0625 C 2.878906 -2.925781 3.0625 -2.734375 3.1875 -2.484375 C 3.3125 -2.234375 3.375 -1.941406 3.375 -1.609375 Z M 3.375 -1.609375 "/></g></g><g transform="translate(22.200254, 21.893879)"><g><path d="M 0.421875 -4.03125 C 0.421875 -4.320312 0.578125 -4.46875 0.890625 -4.46875 C 1.210938 -4.46875 1.375 -4.320312 1.375 -4.03125 C 1.375 -3.894531 1.332031 -3.789062 1.25 -3.71875 C 1.175781 -3.644531 1.054688 -3.609375 0.890625 -3.609375 C 0.578125 -3.609375 0.421875 -3.75 0.421875 -4.03125 Z M 1.328125 0 L 0.453125 0 L 0.453125 -3.203125 L 1.328125 -3.203125 Z M 1.328125 0 "/></g></g></g><g clip-path="url(#eb73aeb691)"><g clip-path="url(#78be0016dd)"><g clip-path="url(#a5a892e115)"><path fill="url(#6dde190a57)" d="M 9.941406 46.296875 L 38.3125 46.296875 L 38.3125 31.855469 L 9.941406 31.855469 Z M 9.941406 46.296875 " fill-rule="nonzero"/></g></g></g><g clip-path="url(#341ef23db3)"><g clip-path="url(#55bbcc37c0)"><g clip-path="url(#cbf1ee2385)"><path fill="#373638" d="M 14.378906 28.894531 L 14.378906 31.855469 L 33.621094 31.855469 L 33.621094 28.894531 Z M 14.378906 28.894531 " fill-opacity="1" fill-rule="nonzero"/></g></g></g><g clip-path="url(#dd2570866e)"><g clip-path="url(#d5b4e240ac)"><g clip-path="url(#4363ea0bf0)"><path fill="url(#b103d1e595)" d="M 14.75 8.898438 L 1.058594 8.898438 L 1.058594 37.039062 L 14.75 37.039062 Z M 14.75 8.898438 " fill-rule="nonzero"/></g></g></g><g clip-path="url(#5f225cc1ea)"><g clip-path="url(#dda65079b1)"><g clip-path="url(#ad03cabd45)"><path fill="url(#f3b55fc78a)" d="M 46.941406 8.898438 L 33.253906 8.898438 L 33.253906 37.039062 L 46.941406 37.039062 Z M 46.941406 8.898438 " fill-rule="nonzero"/></g></g></g><g clip-path="url(#4d14979e93)"><g clip-path="url(#2dd0d952e1)"><path fill="url(#9946d8cde6)" d="M 19.964844 -2.5 L 14.875 11.949219 L 28.035156 16.59375 L 33.125 2.144531 Z M 19.964844 -2.5 " fill-rule="nonzero"/></g></g><g clip-path="url(#2a1b05e531)"><path fill="url(#679caa4dad)" d="M 18.820312 0.753906 L 18.820312 2.972656 L 29.179688 2.972656 L 29.179688 0.753906 Z M 18.820312 0.753906 " fill-rule="nonzero"/></g><g clip-path="url(#6800684678)"><g clip-path="url(#5aa0affa18)"><g clip-path="url(#552079e62e)"><path fill="#f1f2f2" d="M 34.679688 30.070312 L 36.089844 0.816406 L 10.367188 -0.425781 L 8.957031 28.828125 Z M 34.679688 30.070312 " fill-opacity="1" fill-rule="nonzero"/></g></g></g><g clip-path="url(#b7de675a88)"><g clip-path="url(#18f2b6828e)"><g clip-path="url(#d65a2e80e7)"><g clip-path="url(#d7c6759a48)"><path fill="url(#a39a39393a)" d="M 4.777344 20.34375 L 29.5625 36.730469 L 47.667969 9.300781 L 22.882812 -7.082031 Z M 4.777344 20.34375 " fill-rule="nonzero"/></g></g></g></g><g clip-path="url(#b949ded5ed)"><g clip-path="url(#879615050b)"><g clip-path="url(#5b6f603799)"><g clip-path="url(#f5b84915b8)"><path fill="url(#e8fcf06280)" d="M 13.402344 -1.078125 L 11.160156 28.734375 L 37.554688 30.722656 L 39.792969 0.910156 Z M 13.402344 -1.078125 " fill-rule="nonzero"/></g></g></g></g><g clip-path="url(#cdd07ed82f)"><g clip-path="url(#f8e8da786e)"><g clip-path="url(#97c1e700ba)"><g clip-path="url(#d1c75cc66b)"><path fill="url(#8ac641f32e)" d="M 31.707031 0.824219 L 13.308594 -0.105469 L 11.847656 28.824219 L 30.246094 29.753906 Z M 31.707031 0.824219 " fill-rule="nonzero"/></g></g></g></g><g clip-path="url(#ab89a33213)"><g clip-path="url(#7fb0f0e542)"><g clip-path="url(#9dba266a26)"><path fill="url(#8bc6f225e6)" d="M 23.628906 30.746094 L 15.488281 30.746094 L 15.488281 41.484375 L 23.628906 41.484375 Z M 23.628906 30.746094 " fill-rule="nonzero"/></g></g></g><g clip-path="url(#459c022360)"><g clip-path="url(#b5121ac7b0)"><g clip-path="url(#6ccff8d793)"><path fill="url(#e99e0d8758)" d="M 24.371094 30.746094 L 32.511719 30.746094 L 32.511719 41.484375 L 24.371094 41.484375 Z M 24.371094 30.746094 " fill-rule="nonzero"/></g></g></g><g clip-path="url(#816f8da32a)"><g clip-path="url(#b561d4de93)"><g clip-path="url(#c93f958195)"><path fill="#414042" d="M 27.5625 28.234375 L 21.152344 27.351562 L 20.4375 32.515625 L 26.851562 33.398438 Z M 27.5625 28.234375 " fill-opacity="1" fill-rule="nonzero"/></g></g></g><g clip-path="url(#896134ed35)"><g clip-path="url(#bb62fa332a)"><g clip-path="url(#0879e85fed)"><path fill="#d6d7d9" d="M 47.3125 32.210938 L 37.691406 32.210938 L 37.691406 37.890625 L 47.3125 37.890625 Z M 47.3125 32.210938 " fill-opacity="1" fill-rule="nonzero"/></g></g></g><g clip-path="url(#16ada135a7)"><g clip-path="url(#ca8edfa127)"><g clip-path="url(#7a7e2621fd)"><path fill="#d6d7d9" d="M 0.6875 32.210938 L 10.308594 32.210938 L 10.308594 37.890625 L 0.6875 37.890625 Z M 0.6875 32.210938 " fill-opacity="1" fill-rule="nonzero"/></g></g></g><g clip-path="url(#48cff03673)"><path fill="#3a322b" d="M 46.5 33.867188 C 46.390625 34.113281 46.125 34.3125 45.707031 34.457031 L 40.511719 36.3125 C 40.476562 36.328125 40.429688 36.347656 40.378906 36.371094 C 40.0625 36.519531 39.402344 36.820312 38.863281 36.582031 C 38.578125 36.453125 38.34375 36.175781 38.164062 35.761719 L 46.363281 32.6875 C 46.511719 33.0625 46.660156 33.519531 46.5 33.867188 Z M 37.839844 10.328125 L 46.09375 31.996094 L 37.9375 35.058594 L 35.375 26.085938 Z M 33.253906 28.523438 L 27.121094 28.523438 C 26.867188 28.082031 26.394531 27.78125 25.847656 27.78125 L 22.148438 27.78125 C 21.601562 27.78125 21.132812 28.082031 20.875 28.523438 L 15.570312 28.523438 C 17.699219 26.070312 25.535156 16.542969 30.335938 3.898438 L 30.695312 4.621094 C 30.726562 4.679688 30.769531 4.726562 30.824219 4.761719 L 37.285156 9.074219 L 34.628906 26.066406 L 34.371094 27.703125 C 34.230469 28.171875 33.753906 28.523438 33.253906 28.523438 Z M 37.355469 41.28125 C 37.644531 41.855469 37.894531 42.628906 37.429688 43.066406 C 35.53125 44.855469 30.507812 45.925781 24 45.925781 C 17.488281 45.925781 12.464844 44.855469 10.566406 43.066406 C 10.101562 42.628906 10.351562 41.855469 10.65625 41.246094 L 13.96875 32.761719 C 14.238281 32.226562 14.34375 32.226562 14.75 32.226562 L 20.242188 32.226562 L 15.566406 38.660156 C 15.210938 39.113281 15.082031 39.421875 15.128906 39.703125 C 15.175781 40.003906 15.402344 40.148438 15.566406 40.253906 L 17.546875 41.445312 C 17.640625 41.492188 17.726562 41.550781 17.808594 41.601562 C 17.996094 41.722656 18.199219 41.851562 18.433594 41.851562 C 18.492188 41.851562 18.550781 41.84375 18.613281 41.828125 C 18.90625 41.738281 19.0625 41.464844 19.148438 41.285156 L 23.46875 32.96875 L 24.527344 32.96875 L 28.84375 41.269531 C 28.933594 41.464844 29.089844 41.738281 29.382812 41.828125 C 29.445312 41.84375 29.503906 41.851562 29.5625 41.851562 C 29.796875 41.851562 30.003906 41.722656 30.1875 41.601562 C 30.269531 41.550781 30.355469 41.492188 30.480469 41.429688 L 32.347656 40.308594 L 32.429688 40.253906 C 32.59375 40.148438 32.820312 40.003906 32.867188 39.703125 C 32.917969 39.421875 32.785156 39.113281 32.4375 38.671875 L 27.753906 32.226562 L 33.25 32.226562 C 33.652344 32.226562 33.757812 32.226562 34.011719 32.730469 Z M 20.667969 31.484375 L 14.796875 31.484375 L 15.074219 29.265625 L 20.667969 29.265625 Z M 22.148438 32.96875 L 22.632812 32.96875 L 18.480469 40.957031 C 18.449219 41.03125 18.425781 41.070312 18.40625 41.097656 C 18.351562 41.070312 18.269531 41.015625 18.207031 40.980469 C 18.105469 40.914062 17.992188 40.839844 17.898438 40.796875 L 16.066406 39.699219 C 16.035156 39.675781 16 39.652344 15.964844 39.632812 C 15.9375 39.613281 15.894531 39.585938 15.867188 39.5625 C 15.886719 39.507812 15.949219 39.375 16.15625 39.109375 L 21.015625 32.425781 C 21.285156 32.753906 21.691406 32.96875 22.148438 32.96875 Z M 26.546875 29.03125 C 26.546875 29.035156 26.546875 29.039062 26.550781 29.039062 C 26.574219 29.109375 26.589844 29.183594 26.589844 29.265625 L 26.589844 31.484375 C 26.589844 31.894531 26.257812 32.226562 25.847656 32.226562 L 22.148438 32.226562 C 21.738281 32.226562 21.410156 31.894531 21.410156 31.484375 L 21.410156 29.265625 C 21.410156 29.183594 21.421875 29.109375 21.445312 29.039062 C 21.449219 29.039062 21.449219 29.039062 21.449219 29.035156 C 21.542969 28.738281 21.820312 28.523438 22.148438 28.523438 L 25.847656 28.523438 C 26.175781 28.523438 26.449219 28.738281 26.546875 29.03125 Z M 26.984375 32.425781 L 31.851562 39.121094 C 32.050781 39.378906 32.109375 39.507812 32.128906 39.5625 C 32.101562 39.585938 32.0625 39.613281 32.03125 39.632812 C 31.996094 39.652344 31.964844 39.675781 31.949219 39.6875 L 30.125 40.78125 C 30.003906 40.839844 29.894531 40.914062 29.789062 40.980469 C 29.730469 41.015625 29.648438 41.070312 29.59375 41.097656 C 29.574219 41.070312 29.542969 41.023438 29.507812 40.941406 L 25.363281 32.96875 L 25.847656 32.96875 C 26.308594 32.96875 26.710938 32.753906 26.984375 32.425781 Z M 32.921875 29.265625 L 33.199219 31.484375 L 27.328125 31.484375 L 27.328125 29.265625 Z M 13.683594 27.859375 C 14.515625 26.882812 18.800781 21.703125 23.117188 14.3125 C 23.140625 14.285156 23.15625 14.253906 23.171875 14.21875 C 23.542969 13.582031 23.914062 12.925781 24.285156 12.253906 C 24.300781 12.234375 24.3125 12.207031 24.324219 12.183594 C 26.089844 8.976562 27.800781 5.429688 29.226562 1.675781 L 29.882812 2.996094 C 24.738281 16.96875 15.730469 27.25 14.59375 28.511719 C 14.207031 28.457031 13.851562 28.203125 13.683594 27.859375 Z M 10.0625 35.058594 L 1.90625 32 L 10.15625 10.332031 L 12.625 26.09375 Z M 9.132812 36.582031 C 8.597656 36.820312 7.9375 36.519531 7.621094 36.371094 C 7.566406 36.347656 7.523438 36.328125 7.472656 36.308594 L 2.289062 34.453125 C 1.875 34.3125 1.609375 34.113281 1.5 33.867188 C 1.339844 33.519531 1.488281 33.0625 1.636719 32.6875 L 9.832031 35.761719 C 9.652344 36.175781 9.421875 36.453125 9.132812 36.582031 Z M 17.171875 4.761719 C 17.226562 4.726562 17.269531 4.679688 17.300781 4.621094 L 17.660156 3.898438 C 18.9375 7.261719 20.53125 10.675781 22.40625 14.058594 C 18.609375 20.546875 14.847656 25.296875 13.503906 26.921875 L 13.371094 26.070312 L 10.710938 9.074219 Z M 18.769531 1.671875 C 20.050781 5.046875 21.660156 8.519531 23.574219 12.011719 C 23.328125 12.453125 23.085938 12.886719 22.84375 13.3125 C 20.957031 9.871094 19.367188 6.40625 18.113281 2.996094 Z M 28.070312 2.605469 L 19.925781 2.605469 C 19.730469 2.109375 19.535156 1.613281 19.351562 1.121094 L 28.640625 1.121094 C 28.457031 1.621094 28.265625 2.113281 28.070312 2.605469 Z M 23.996094 11.242188 C 22.558594 8.582031 21.292969 5.9375 20.226562 3.34375 L 27.769531 3.34375 C 26.621094 6.128906 25.328125 8.78125 23.996094 11.242188 Z M 46.984375 32.242188 L 38.039062 8.765625 C 38.019531 8.726562 38 8.691406 37.972656 8.664062 C 37.953125 8.640625 37.933594 8.621094 37.90625 8.601562 C 37.902344 8.601562 37.902344 8.597656 37.902344 8.597656 C 37.898438 8.59375 37.898438 8.59375 37.894531 8.589844 L 31.316406 4.203125 L 29.507812 0.585938 C 29.445312 0.460938 29.320312 0.382812 29.179688 0.382812 L 18.820312 0.382812 C 18.679688 0.382812 18.550781 0.460938 18.484375 0.585938 L 16.679688 4.203125 L 10.101562 8.589844 C 10.085938 8.601562 10.074219 8.613281 10.0625 8.628906 C 10.050781 8.636719 10.042969 8.644531 10.035156 8.652344 C 10.003906 8.683594 9.980469 8.722656 9.964844 8.757812 C 9.964844 8.761719 9.960938 8.765625 9.960938 8.765625 L 1.085938 32.070312 C 1.082031 32.074219 1.078125 32.078125 1.078125 32.082031 C 1.078125 32.085938 1.078125 32.089844 1.074219 32.09375 L 1.015625 32.242188 C 0.816406 32.734375 0.511719 33.480469 0.824219 34.171875 C 1.023438 34.613281 1.433594 34.941406 2.042969 35.152344 L 7.207031 37 C 7.234375 37.011719 7.269531 37.027344 7.3125 37.046875 C 7.582031 37.167969 8.105469 37.410156 8.6875 37.410156 C 8.933594 37.410156 9.183594 37.367188 9.433594 37.257812 C 9.996094 37.007812 10.40625 36.46875 10.664062 35.648438 L 12.894531 27.835938 L 12.898438 27.839844 C 12.898438 27.847656 12.902344 27.855469 12.902344 27.859375 C 12.90625 27.867188 12.902344 27.875 12.90625 27.882812 C 13.089844 28.550781 13.660156 29.0625 14.335938 29.214844 L 14.035156 31.605469 C 13.777344 31.726562 13.539062 31.964844 13.292969 32.460938 L 9.980469 40.945312 C 9.207031 42.46875 9.695312 43.265625 10.058594 43.605469 C 12.089844 45.519531 17.304688 46.667969 24 46.667969 C 30.695312 46.667969 35.902344 45.519531 37.9375 43.605469 C 38.300781 43.265625 38.789062 42.46875 38.027344 40.980469 L 34.691406 32.429688 C 34.449219 31.953125 34.214844 31.71875 33.957031 31.601562 L 33.660156 29.214844 C 34.335938 29.0625 34.90625 28.550781 35.089844 27.882812 C 35.09375 27.867188 35.097656 27.855469 35.097656 27.839844 L 35.101562 27.828125 L 37.335938 35.65625 C 37.339844 35.660156 37.34375 35.667969 37.34375 35.671875 C 37.34375 35.671875 37.34375 35.675781 37.34375 35.675781 C 37.34375 35.675781 37.34375 35.675781 37.347656 35.675781 C 37.601562 36.476562 38.011719 37.011719 38.5625 37.257812 C 38.8125 37.367188 39.066406 37.410156 39.3125 37.410156 C 39.890625 37.410156 40.417969 37.167969 40.6875 37.046875 C 40.726562 37.027344 40.765625 37.011719 40.777344 37.003906 L 45.953125 35.152344 C 46.566406 34.941406 46.976562 34.613281 47.175781 34.171875 C 47.488281 33.480469 47.183594 32.734375 46.984375 32.242188 " fill-opacity="1" fill-rule="nonzero"/></g></svg>